<?xml version="1.0" encoding="UTF-8" standalone="no"?>
<svg width="9px" height="9px" viewBox="0 0 9 9" version="1.1" xmlns="http://www.w3.org/2000/svg" xmlns:xlink="http://www.w3.org/1999/xlink" xmlns:sketch="http://www.bohemiancoding.com/sketch/ns">
    <!-- Generator: Sketch 3.3.2 (12043) - http://www.bohemiancoding.com/sketch -->
    <title>Fill 17</title>
    <desc>Created with Sketch.</desc>
    <defs></defs>
    <g id="Page-1" stroke="none" stroke-width="1" fill="none" fill-rule="evenodd" sketch:type="MSPage">
        <path d="M8.05157499,0.258191123 L4.38457499,3.79419112 L0.845574992,0.125191123 C0.688574992,-0.037808877 0.429574992,-0.041808877 0.266574992,0.114191123 C0.103574992,0.271191123 0.0985749922,0.531191123 0.255574992,0.693191123 L3.79357499,4.36319112 L0.125574992,7.89919112 C-0.0374250078,8.05719112 -0.0424250078,8.31519112 0.114574992,8.47919112 C0.195574992,8.56219112 0.302574992,8.60319112 0.409574992,8.60319112 C0.511574992,8.60319112 0.615574992,8.56619112 0.694574992,8.48819112 L4.36057499,4.95219112 L7.89657499,8.61819112 C7.97857499,8.70319112 8.08557499,8.74519112 8.19257499,8.74519112 C8.29557499,8.74519112 8.39757499,8.70719112 8.47657499,8.62919112 C8.64057499,8.47319112 8.64557499,8.21319112 8.48757499,8.04919112 L4.95157499,4.38219112 L8.61957499,0.846191123 C8.78157499,0.690191123 8.78757499,0.431191123 8.63057499,0.267191123 C8.47357499,0.105191123 8.21357499,0.103191123 8.05157499,0.258191123" id="Fill-17" fill="#161614" sketch:type="MSShapeGroup"></path>
    </g>
</svg>