<?xml version="1.0" encoding="UTF-8" standalone="no"?>
<svg width="24px" height="24px" viewBox="0 0 24 24" version="1.1" xmlns="http://www.w3.org/2000/svg" xmlns:xlink="http://www.w3.org/1999/xlink" xmlns:sketch="http://www.bohemiancoding.com/sketch/ns">
    <!-- Generator: Sketch 3.3.1 (12005) - http://www.bohemiancoding.com/sketch -->
    <title>Group</title>
    <desc>Created with Sketch.</desc>
    <defs></defs>
    <g id="Page-1" stroke="none" stroke-width="1" fill="none" fill-rule="evenodd" sketch:type="MSPage">
        <g id="Group" sketch:type="MSLayerGroup" fill="#FFFFFF">
            <path d="M12.541,0.711 L12.33,0.71 C6.148,0.71 1.028,5.739 0.915,11.923 C0.801,18.221 5.83,23.437 12.127,23.552 L12.337,23.553 C18.519,23.553 23.641,18.522 23.754,12.34 C23.809,9.288 22.674,6.399 20.556,4.204 C18.438,2.006 15.592,0.769 12.541,0.711 L12.541,0.711 Z M12.337,22.733 L12.14,22.73 C6.296,22.626 1.627,17.784 1.734,11.939 C1.838,6.199 6.59,1.53 12.329,1.53 L12.526,1.532 C15.359,1.581 18,2.733 19.965,4.773 C21.932,6.811 22.986,9.493 22.935,12.322 C22.83,18.063 18.075,22.733 12.337,22.733 L12.337,22.733 Z" id="Shape" sketch:type="MSShapeGroup"></path>
            <path d="M16.013,8.017 L12.346,11.553 L8.807,7.884 C8.65,7.721 8.391,7.717 8.228,7.873 C8.064,8.029 8.06,8.29 8.217,8.452 L11.754,12.122 L8.087,15.657 C7.924,15.815 7.919,16.073 8.076,16.237 C8.157,16.32 8.264,16.361 8.371,16.361 C8.473,16.361 8.577,16.324 8.656,16.247 L12.323,12.711 L15.859,16.377 C15.941,16.462 16.048,16.504 16.155,16.504 C16.258,16.504 16.361,16.466 16.439,16.388 C16.603,16.232 16.608,15.972 16.45,15.808 L12.914,12.141 L16.581,8.605 C16.744,8.449 16.749,8.19 16.593,8.026 C16.435,7.863 16.175,7.861 16.013,8.017 L16.013,8.017 Z" id="Shape" sketch:type="MSShapeGroup"></path>
        </g>
    </g>
</svg>