<?xml version="1.0" encoding="UTF-8" standalone="no"?>
<svg width="10px" height="10px" viewBox="0 0 10 10" version="1.1" xmlns="http://www.w3.org/2000/svg" xmlns:xlink="http://www.w3.org/1999/xlink" xmlns:sketch="http://www.bohemiancoding.com/sketch/ns">
    <!-- Generator: Sketch 3.3.1 (12005) - http://www.bohemiancoding.com/sketch -->
    <title>Shape</title>
    <desc>Created with Sketch.</desc>
    <defs></defs>
    <g id="Page-1" stroke="none" stroke-width="1" fill="none" fill-rule="evenodd" sketch:type="MSPage">
        <path d="M10.5200654,4.63119112 L5.2130654,-0.874808877 C5.0550654,-1.03780888 4.7990654,-1.04180888 4.6330654,-0.885808877 C4.4730654,-0.729808877 4.4650654,-0.469808877 4.6210654,-0.306808877 L9.2460654,4.48819112 L-0.583934604,4.30919112 L-0.589934604,4.30919112 C-0.814934604,4.30919112 -0.997934604,4.49019112 -0.999934604,4.71119112 C-1.0039346,4.93919112 -0.823934604,5.12519112 -0.597934604,5.13019112 L9.2260654,5.30719112 L4.4350654,9.93219112 C4.2730654,10.0881911 4.2690654,10.3481911 4.4250654,10.5121911 C4.5050654,10.5941911 4.6130654,10.6361911 4.7200654,10.6361911 C4.8240654,10.6361911 4.9250654,10.5991911 5.0050654,10.5211911 L10.8040654,4.92619112 L10.5210654,4.63119112 C10.5200654,4.63219112 10.5200654,4.63119112 10.5200654,4.63119112 L10.5200654,4.63119112 Z" id="Shape" fill="#FFFFFF" sketch:type="MSShapeGroup" transform="translate(4.902033, 4.818096) rotate(-45.000000) translate(-4.902033, -4.818096) "></path>
    </g>
</svg>