<?xml version="1.0" encoding="UTF-8" standalone="no"?>
<svg width="23px" height="23px" viewBox="0 0 23 23" version="1.1" xmlns="http://www.w3.org/2000/svg" xmlns:xlink="http://www.w3.org/1999/xlink" xmlns:sketch="http://www.bohemiancoding.com/sketch/ns">
    <!-- Generator: Sketch 3.3.2 (12043) - http://www.bohemiancoding.com/sketch -->
    <title>Fill 18</title>
    <desc>Created with Sketch.</desc>
    <defs></defs>
    <g id="Page-1" stroke="none" stroke-width="1" fill="none" fill-rule="evenodd" sketch:type="MSPage">
        <path d="M11.4241862,22.024 L11.2261862,22.021 C8.39618615,21.971 5.75418615,20.82 3.78918615,18.781 C1.82218615,16.742 0.769186154,14.06 0.820186154,11.23 C0.924186154,5.49 5.67618615,0.821 11.4161862,0.821 L11.6111862,0.823 C14.4431862,0.871 17.0841862,2.024 19.0511862,4.064 C21.0161862,6.102 22.0701862,8.783 22.0191862,11.613 C21.9161862,17.354 17.1621862,22.024 11.4241862,22.024 L11.4241862,22.024 Z M11.6271862,0.001 L11.4161862,0 C5.23418615,0 0.113186154,5.032 0.00218615357,11.213 C-0.0568138464,14.264 1.08018615,17.152 3.19718615,19.35 C5.31418615,21.546 8.16218615,22.786 11.2131862,22.842 L11.4241862,22.843 C17.6051862,22.843 22.7261862,17.812 22.8381862,11.63 C22.8941862,8.578 21.7601862,5.692 19.6421862,3.494 C17.5231862,1.296 14.6781862,0.059 11.6271862,0.001 L11.6271862,0.001 Z" id="Fill-18" fill="#FFFFFF" sketch:type="MSShapeGroup"></path>
    </g>
</svg>