<?xml version="1.0" encoding="UTF-8" standalone="no"?>
<svg width="23px" height="23px" viewBox="0 0 23 23" version="1.1" xmlns="http://www.w3.org/2000/svg" xmlns:xlink="http://www.w3.org/1999/xlink" xmlns:sketch="http://www.bohemiancoding.com/sketch/ns">
    <!-- Generator: Sketch 3.3.2 (12043) - http://www.bohemiancoding.com/sketch -->
    <title>Fill 18 + Fill 19</title>
    <desc>Created with Sketch.</desc>
    <defs></defs>
    <g id="Page-1" stroke="none" stroke-width="1" fill="none" fill-rule="evenodd" sketch:type="MSPage">
        <g id="Fill-18-+-Fill-19" sketch:type="MSLayerGroup" fill="#161614">
            <path d="M11.4241862,22.024 L11.2261862,22.021 C8.39618615,21.971 5.75418615,20.82 3.78918615,18.781 C1.82218615,16.742 0.769186154,14.06 0.820186154,11.23 C0.924186154,5.49 5.67618615,0.821 11.4161862,0.821 L11.6111862,0.823 C14.4431862,0.871 17.0841862,2.024 19.0511862,4.064 C21.0161862,6.102 22.0701862,8.783 22.0191862,11.613 C21.9161862,17.354 17.1621862,22.024 11.4241862,22.024 L11.4241862,22.024 Z M11.6271862,0.001 L11.4161862,0 C5.23418615,0 0.113186154,5.032 0.00218615357,11.213 C-0.0568138464,14.264 1.08018615,17.152 3.19718615,19.35 C5.31418615,21.546 8.16218615,22.786 11.2131862,22.842 L11.4241862,22.843 C17.6051862,22.843 22.7261862,17.812 22.8381862,11.63 C22.8941862,8.578 21.7601862,5.692 19.6421862,3.494 C17.5231862,1.296 14.6781862,0.059 11.6271862,0.001 L11.6271862,0.001 Z" id="Fill-18" sketch:type="MSShapeGroup"></path>
            <path d="M17.404,10.5061911 L7.576,10.3281911 L12.369,5.70319112 C12.533,5.54719112 12.537,5.28619112 12.38,5.12519112 C12.224,4.96219112 11.962,4.95819112 11.8,5.11419112 L6,10.7081911 L6.283,11.0031911 C6.285,11.0031911 6.285,11.0051911 6.285,11.0051911 L11.595,16.5121911 C11.675,16.5951911 11.783,16.6361911 11.89,16.6361911 C11.992,16.6361911 12.095,16.5991911 12.175,16.5211911 C12.337,16.3641911 12.341,16.1041911 12.185,15.9421911 L7.56,11.1471911 L17.388,11.3251911 L17.396,11.3251911 C17.619,11.3251911 17.8,11.1461911 17.806,10.9241911 C17.81,10.6961911 17.63,10.5101911 17.404,10.5061911" id="Fill-19" sketch:type="MSShapeGroup"></path>
        </g>
    </g>
</svg>