<?xml version="1.0" encoding="UTF-8" standalone="no"?>
<svg width="256px" height="256px" viewBox="0 0 256 256" version="1.1" xmlns="http://www.w3.org/2000/svg" xmlns:xlink="http://www.w3.org/1999/xlink" xmlns:sketch="http://www.bohemiancoding.com/sketch/ns">
    <!-- Generator: Sketch 3.3.2 (12043) - http://www.bohemiancoding.com/sketch -->
    <title>Artboard 1 Copy</title>
    <desc>Created with Sketch.</desc>
    <defs></defs>
    <g id="Page-1" stroke="none" stroke-width="1" fill="none" fill-rule="evenodd" sketch:type="MSPage">
        <g id="Artboard-1-Copy" sketch:type="MSArtboardGroup">
            <g id="Group" sketch:type="MSLayerGroup" transform="translate(9.000000, 11.000000)">
                <path d="M230.819508,138.482143 C208.132678,157.221994 185.443052,175.952054 162.749233,194.68631 C156.571572,199.791964 147.792865,204.056935 139.552257,200.825685 C99.0172975,184.905833 58.4823384,168.985982 17.9417887,153.063333 C14.0381221,151.531637 10.383239,148.878095 7.39923316,145.583899 C-8.03513526,158.047292 3.22302264,179.663095 17.9417887,185.441577 C58.4823384,201.364226 99.0172975,217.288274 139.552257,233.20253 C147.792865,236.432381 156.571572,232.167411 162.749233,227.067351 C185.451438,208.324702 208.152245,189.580655 230.847461,170.840804 C243.131502,160.70503 239.981175,146.828839 230.819508,138.482143" id="Fill-1" fill="#194770" sketch:type="MSShapeGroup"></path>
                <path d="M71.2807018,83.4012202 C79.4234737,86.5988988 87.5634503,89.7951786 95.7076199,92.9914583 C100.663725,88.999256 105.624023,85.01125 110.581526,81.01625 C122.28414,71.5994643 120.170877,58.786369 112.188836,50.3571429 C111.681485,50.8327381 111.154567,51.3027381 110.581526,51.7615476 C97.4812515,62.3071726 84.3809766,72.8555952 71.2807018,83.4012202" id="Fill-3" fill="#AFDCDD" sketch:type="MSShapeGroup"></path>
                <path d="M230.84058,97.9768155 C208.145363,116.722262 185.444556,135.463512 162.742352,154.204762 C156.564691,159.309018 147.785983,163.575387 139.545375,160.341339 C99.010416,144.421488 58.4754569,128.504435 17.9349072,112.580387 C13.3463867,110.782917 9.0961002,107.441161 5.8856733,103.318869 C-7.2453501,115.934732 3.72908265,136.263631 17.9349072,141.844881 C58.4754569,157.761935 99.010416,173.681786 139.545375,189.598839 C147.785983,192.82869 156.564691,188.56372 162.742352,183.453869 C185.444556,164.72381 208.145363,145.978363 230.84058,127.239911 C242.351714,117.737798 240.309732,104.955476 232.467457,96.5178571 C231.954515,97.0130357 231.419211,97.4998214 230.84058,97.9768155" id="Fill-4" fill="#AFDCDD" sketch:type="MSShapeGroup"></path>
                <path d="M197.134952,52.8895534 C178.60197,68.1799404 160.077373,83.4773213 141.552777,98.7733034 C118.032941,89.5397618 94.5131045,80.3048213 70.9932682,71.0712796 C84.0935431,60.522857 97.1938179,49.9758332 110.294093,39.4302082 C134.266771,20.1406249 100.286841,-13.4098216 76.5755255,5.68392845 C53.522508,24.2405356 30.4722858,42.7999404 7.42625653,61.3523511 C-8.04864406,73.8143451 3.21510448,95.4539284 17.9422565,101.232411 C58.4828062,117.155059 99.0177653,133.073512 139.552724,148.993363 C147.793333,152.226012 156.57204,147.961042 162.749701,142.856786 C185.451906,124.112738 208.152713,105.374286 230.847929,86.630238 C254.596982,67.0385118 220.657584,33.4670832 197.134952,52.8895534" id="Fill-5" fill="#00A2D2" sketch:type="MSShapeGroup"></path>
            </g>
        </g>
    </g>
</svg>