<?xml version="1.0" encoding="UTF-8" standalone="no"?>
<svg width="800px" height="250px" viewBox="0 0 800 250" version="1.1" xmlns="http://www.w3.org/2000/svg" xmlns:xlink="http://www.w3.org/1999/xlink" xmlns:sketch="http://www.bohemiancoding.com/sketch/ns">
    <!-- Generator: Sketch 3.3.2 (12043) - http://www.bohemiancoding.com/sketch -->
    <title>Artboard 1</title>
    <desc>Created with Sketch.</desc>
    <defs>
        <path id="path-1" d="M0,0.269 L660.829,0.269 L660.829,167.94 L0,167.94"></path>
    </defs>
    <g id="Page-1" stroke="none" stroke-width="1" fill="none" fill-rule="evenodd" sketch:type="MSPage">
        <g id="Artboard-1" sketch:type="MSArtboardGroup">
            <g id="catchup03" sketch:type="MSLayerGroup" transform="translate(70.000000, 41.000000)">
                <g id="Group-6">
                    <mask id="mask-2" sketch:name="Clip 2" fill="white">
                        <use xlink:href="#path-1"></use>
                    </mask>
                    <g id="Clip-2"></g>
                    <path d="M165.147,99.482 C148.915,112.879 132.681,126.269 116.444,139.662 C112.024,143.312 105.743,146.361 99.847,144.051 C70.845,132.67 41.843,121.289 12.837,109.906 C10.044,108.811 7.429,106.914 5.294,104.559 C-5.749,113.469 2.306,128.922 12.837,133.053 C41.843,144.436 70.845,155.82 99.847,167.197 C105.743,169.506 112.024,166.457 116.444,162.811 C132.687,149.412 148.929,136.012 165.167,122.615 C173.956,115.369 171.702,105.449 165.147,99.482" id="Fill-1" fill="#194770" sketch:type="MSShapeGroup" mask="url(#mask-2)"></path>
                    <path d="M50.794,59.252 C56.62,61.538 62.444,63.823 68.271,66.108 C71.817,63.254 75.366,60.403 78.913,57.547 C87.286,50.815 85.774,41.655 80.063,35.629 C79.7,35.969 79.323,36.305 78.913,36.633 C69.54,44.172 60.167,51.713 50.794,59.252" id="Fill-3" fill="#AFDCDD" sketch:type="MSShapeGroup" mask="url(#mask-2)"></path>
                    <path d="M165.167,70.375 C148.929,83.776 132.687,97.174 116.444,110.572 C112.024,114.221 105.743,117.271 99.847,114.959 C70.845,103.578 41.843,92.199 12.837,80.815 C9.554,79.53 6.513,77.141 4.216,74.194 C-5.179,83.213 2.673,97.746 12.837,101.736 C41.843,113.115 70.845,124.496 99.847,135.875 C105.743,138.184 112.024,135.135 116.444,131.482 C132.687,118.092 148.929,104.691 165.167,91.295 C173.403,84.502 171.942,75.364 166.331,69.332 C165.964,69.686 165.581,70.034 165.167,70.375" id="Fill-4" fill="#AFDCDD" sketch:type="MSShapeGroup" mask="url(#mask-2)"></path>
                    <path d="M141.046,38.079 C127.786,49.01 114.532,59.946 101.278,70.881 C84.45,64.28 67.622,57.678 50.794,51.077 C60.167,43.536 69.54,35.996 78.913,28.457 C96.065,14.667 71.753,-9.318 54.788,4.332 C38.294,17.598 21.802,30.866 5.313,44.129 C-5.759,53.038 2.3,68.508 12.837,72.639 C41.843,84.022 70.845,95.402 99.847,106.783 C105.743,109.094 112.024,106.045 116.444,102.396 C132.687,88.996 148.929,75.6 165.167,62.2 C182.159,48.194 157.876,24.194 141.046,38.079" id="Fill-5" fill="#00A2D2" sketch:type="MSShapeGroup" mask="url(#mask-2)"></path>
                </g>
                <path d="M195.013,83.538 C195.013,77.732 195.963,72.543 197.87,67.974 C199.774,63.406 202.344,59.549 205.581,56.408 C208.817,53.263 212.554,50.86 216.79,49.196 C221.026,47.53 225.478,46.695 230.144,46.695 C234.712,46.695 238.687,47.483 242.067,49.053 C245.444,50.622 248.327,52.552 250.707,54.836 L242.854,65.261 C240.949,63.643 239.045,62.382 237.141,61.478 C235.236,60.571 233.188,60.121 231,60.121 C225.289,60.121 220.669,62.24 217.149,66.473 C213.625,70.71 211.864,76.401 211.864,83.538 C211.864,90.584 213.6,96.223 217.077,100.461 C220.55,104.699 225.049,106.814 230.571,106.814 C233.428,106.814 236.069,106.223 238.497,105.029 C240.924,103.844 243.09,102.439 244.996,100.818 L251.851,111.242 C248.517,114.195 244.853,116.43 240.854,117.955 C236.854,119.475 232.857,120.24 228.858,120.24 C224.097,120.24 219.648,119.432 215.506,117.811 C211.365,116.195 207.771,113.812 204.726,110.67 C201.676,107.529 199.299,103.676 197.585,99.101 C195.872,94.535 195.013,89.348 195.013,83.538" id="Fill-7" fill="#194770" sketch:type="MSShapeGroup"></path>
                <path d="M274.269,98.391 C274.269,101.531 275.197,103.818 277.053,105.242 C278.911,106.674 281.314,107.385 284.265,107.385 C287.12,107.385 289.738,106.723 292.118,105.387 C294.498,104.055 296.977,102.152 299.544,99.676 L299.544,83.967 C294.783,84.538 290.785,85.303 287.549,86.252 C284.31,87.207 281.717,88.277 279.768,89.463 C277.814,90.654 276.411,92.014 275.554,93.535 C274.696,95.059 274.269,96.678 274.269,98.391 L274.269,98.391 Z M258.275,99.676 C258.275,92.156 261.559,86.35 268.129,82.254 C274.696,78.161 285.168,75.305 299.544,73.685 C299.544,71.878 299.306,70.14 298.83,68.471 C298.354,66.809 297.617,65.333 296.617,64.046 C295.617,62.762 294.331,61.764 292.761,61.046 C291.191,60.333 289.213,59.977 286.834,59.977 C283.313,59.977 279.91,60.643 276.624,61.979 C273.341,63.31 270.176,64.926 267.128,66.832 L261.131,55.834 C265.032,53.364 269.388,51.221 274.197,49.411 C279.003,47.604 284.216,46.695 289.834,46.695 C298.689,46.695 305.257,49.291 309.54,54.48 C313.825,59.669 315.965,67.165 315.965,76.971 L315.965,118.525 L302.544,118.525 L301.26,110.814 L300.83,110.814 C297.689,113.48 294.331,115.717 290.761,117.523 C287.192,119.33 283.313,120.24 279.124,120.24 C272.935,120.24 267.914,118.361 264.059,114.598 C260.202,110.836 258.275,105.863 258.275,99.676 L258.275,99.676 Z" id="Fill-8" fill="#194770" sketch:type="MSShapeGroup"></path>
                <path d="M335.529,61.403 L325.536,61.403 L325.536,49.123 L336.388,48.411 L338.386,29.273 L352.094,29.273 L352.094,48.411 L369.945,48.411 L369.945,61.403 L352.094,61.403 L352.094,94.822 C352.094,103.008 355.378,107.1 361.949,107.1 C363.187,107.1 364.449,106.957 365.73,106.674 C367.021,106.389 368.184,106.008 369.233,105.531 L372.088,117.668 C370.184,118.334 368.018,118.93 365.591,119.453 C363.163,119.977 360.566,120.24 357.808,120.24 C353.716,120.24 350.26,119.617 347.454,118.381 C344.645,117.144 342.36,115.41 340.601,113.17 C338.837,110.934 337.553,108.268 336.745,105.17 C335.938,102.082 335.529,98.631 335.529,94.822 L335.529,61.403" id="Fill-9" fill="#194770" sketch:type="MSShapeGroup"></path>
                <path d="M375.799,83.538 C375.799,77.732 376.751,72.543 378.655,67.974 C380.56,63.406 383.127,59.549 386.366,56.408 C389.601,53.263 393.335,50.86 397.575,49.196 C401.812,47.53 406.26,46.695 410.927,46.695 C415.497,46.695 419.469,47.483 422.853,49.053 C426.228,50.622 429.107,52.552 431.488,54.836 L423.635,65.261 C421.73,63.643 419.826,62.382 417.926,61.478 C416.018,60.571 413.971,60.121 411.781,60.121 C406.073,60.121 401.454,62.24 397.931,66.473 C394.406,70.71 392.646,76.401 392.646,83.538 C392.646,90.584 394.383,96.223 397.86,100.461 C401.333,104.699 405.833,106.814 411.356,106.814 C414.209,106.814 416.851,106.223 419.282,105.029 C421.707,103.844 423.873,102.439 425.777,100.818 L432.632,111.242 C429.299,114.195 425.635,116.43 421.637,117.955 C417.64,119.475 413.64,120.24 409.642,120.24 C404.878,120.24 400.43,119.432 396.29,117.811 C392.147,116.195 388.556,113.812 385.508,110.67 C382.464,107.529 380.083,103.676 378.37,99.101 C376.657,94.535 375.799,89.348 375.799,83.538" id="Fill-10" fill="#194770" sketch:type="MSShapeGroup"></path>
                <path d="M443.484,17.706 L459.907,17.706 L459.907,43.697 L459.337,57.262 C462.285,54.503 465.548,52.051 469.118,49.909 C472.689,47.767 476.899,46.695 481.754,46.695 C489.273,46.695 494.751,49.103 498.177,53.907 C501.607,58.715 503.318,65.594 503.318,74.541 L503.318,118.525 L486.896,118.525 L486.896,76.685 C486.896,70.879 486.039,66.783 484.325,64.403 C482.61,62.023 479.803,60.834 475.9,60.834 C472.851,60.834 470.164,61.571 467.83,63.046 C465.497,64.522 462.857,66.69 459.907,69.543 L459.907,118.525 L443.484,118.525 L443.484,17.706" id="Fill-11" fill="#194770" sketch:type="MSShapeGroup"></path>
                <path d="M519.597,48.411 L536.021,48.411 L536.021,90.25 C536.021,96.059 536.878,100.15 538.591,102.529 C540.305,104.912 543.063,106.102 546.872,106.102 C549.92,106.102 552.604,105.338 554.939,103.818 C557.27,102.295 559.771,99.818 562.438,96.391 L562.438,48.411 L578.858,48.411 L578.858,118.525 L565.437,118.525 L564.153,108.244 L563.72,108.244 C560.672,111.861 557.367,114.766 553.799,116.953 C550.229,119.144 546.016,120.24 541.161,120.24 C533.639,120.24 528.164,117.836 524.738,113.029 C521.31,108.223 519.597,101.342 519.597,92.392 L519.597,48.411" id="Fill-12" fill="#00A2D2" sketch:type="MSShapeGroup"></path>
                <path d="M613.275,100.818 C615.845,103.008 618.321,104.531 620.701,105.387 C623.08,106.244 625.317,106.674 627.411,106.674 C632.072,106.674 635.981,104.652 639.12,100.605 C642.264,96.559 643.832,90.537 643.832,82.538 C643.832,75.495 642.645,70.021 640.262,66.119 C637.886,62.213 634.03,60.261 628.697,60.261 C623.745,60.261 618.605,62.881 613.275,68.117 L613.275,100.818 L613.275,100.818 Z M613.275,124.238 L613.275,146.228 L596.853,146.228 L596.853,48.411 L610.417,48.411 L611.561,55.834 L612.13,55.834 C615.082,53.364 618.368,51.221 621.985,49.411 C625.603,47.604 629.364,46.695 633.267,46.695 C637.646,46.695 641.526,47.53 644.905,49.196 C648.283,50.86 651.165,53.263 653.545,56.408 C655.924,59.549 657.732,63.31 658.972,67.688 C660.206,72.068 660.829,76.971 660.829,82.399 C660.829,88.392 659.991,93.75 658.327,98.463 C656.663,103.172 654.448,107.125 651.689,110.314 C648.925,113.506 645.736,115.955 642.119,117.668 C638.502,119.381 634.739,120.24 630.84,120.24 C627.792,120.24 624.744,119.572 621.7,118.24 C618.652,116.908 615.7,115.002 612.846,112.529 L613.275,124.238 L613.275,124.238 Z" id="Fill-13" fill="#00A2D2" sketch:type="MSShapeGroup"></path>
            </g>
        </g>
    </g>
</svg>